<?xml version="1.0" encoding="utf-8"?>
<!-- Generator: Adobe Illustrator 21.0.0, SVG Export Plug-In . SVG Version: 6.00 Build 0)  -->
<svg version="1.1" id="Capa_1" xmlns="http://www.w3.org/2000/svg" xmlns:xlink="http://www.w3.org/1999/xlink" x="0px" y="0px"
	 viewBox="0 0 30 30" style="enable-background:new 0 0 30 30;" xml:space="preserve">
<g>
	<path fill="#ffffff" d="M21.7175 4.03984L4.03985 21.7175C2.74031 23.0171 3.22376 24.437 4.39295 25.6061C5.56307 26.7763 6.9822 27.2604 8.28249 25.9602L25.9602 8.28248C27.2612 6.98145 26.7763 5.56306 25.6061 4.39294C24.437 3.22375 23.0185 2.73881 21.7175 4.03984Z" />
	<path fill="#ffffff" d="M25.9602 21.7175L8.28249 4.03983C6.98295 2.74029 5.56305 3.22374 4.39386 4.39293C3.22373 5.56306 2.73956 6.98219 4.03985 8.28247L21.7175 25.9601C23.0185 27.2612 24.4369 26.7763 25.6071 25.6061C26.7762 24.4369 27.2612 23.0185 25.9602 21.7175Z" />
</g>
</svg>
