<svg width="33" height="33" viewBox="0 0 33 33" fill="none" xmlns="http://www.w3.org/2000/svg">
<path d="M33 30.2058L23.5589 20.648C25.0349 18.5118 25.9195 15.9186 25.9195 13.1192C25.9195 5.88709 20.1061 0 12.9566 0C5.81131 0 0 5.88813 0 13.1192C0 20.3513 5.81131 26.2353 12.9566 26.2353C15.925 26.2353 18.662 25.2088 20.8477 23.4984L30.2353 33L33 30.2058ZM12.9577 22.2866C7.96818 22.2866 3.90129 18.1745 3.90129 13.1203C3.90129 8.06599 7.96818 3.95596 12.9577 3.95596C17.9492 3.95596 22.012 8.06599 22.012 13.1203C22.012 18.1745 17.9492 22.2866 12.9577 22.2866Z" fill="white"/>
</svg>
