<?xml version="1.0" encoding="UTF-8"?><svg id="Calque_1" xmlns="http://www.w3.org/2000/svg" width="60" height="60" viewBox="0 0 60 60"><defs><style>.cls-1{fill:#fff;}.cls-2{fill:#109e4d;}.cls-3{fill:#212d47;fill-rule:evenodd;}</style></defs><path class="cls-3" d="m30.87,27.24c0-2.87-2.34-5.21-5.21-5.21s-5.21,2.34-5.21,5.21v1.48h10.43v-1.48Z"/><path class="cls-3" d="m29.39,37.19c-1.55.86-2.19,2.8-2.19,4.86h-.84c0-.11-.18-1.63.14-2.8.23-.87.54-1.78,1.07-2.89.46-.95.63-2.57-.34-3.78-.83-1.05-1.34-1.64-1.55-2.05-.23.41-.72,1-1.57,2.05-.97,1.21-.8,2.83-.34,3.78.53,1.11.83,2.02,1.07,2.89.31,1.17.14,2.69.14,2.8h-.85c0-2.06-.64-4-2.2-4.86-2.21-1.22-4.38.9-3.69,3.1.36,1.16,1.01,1.54,1.2,1.54,0,0-.3-1.27.62-1.92.86-.61,1.93-.24,2.43.49.47.69.55,1.65.55,1.65h-1.59v1.17h3.19s-.09,1.66-1.83,1.49c0,0,.21,1.3,1.83.62,0,0-.09,1.37,1.03,2.05,1.1-.69,1.02-2.05,1.02-2.05,1.62.68,1.84-.62,1.84-.62-1.75.16-1.84-1.5-1.84-1.5h3.2s0-1.17,0-1.17h-1.6s.08-.95.55-1.65c.5-.73,1.57-1.1,2.44-.49.91.65.63,1.92.63,1.92.18,0,.82-.39,1.18-1.54.69-2.2-1.49-4.32-3.69-3.1Z"/><path class="cls-3" d="m25.66,10.17C11.9,10.17.75,21.32.75,35.08s11.15,24.91,24.91,24.91,24.91-11.15,24.91-24.91-11.15-24.91-24.91-24.91Zm14.19,35.23c0,2.33-1.89,4.21-4.21,4.21H15.68c-2.33,0-4.21-1.89-4.21-4.21v-12.46c0-2.33,1.89-4.21,4.21-4.21h.53v-1.48c0-5.21,4.24-9.45,9.45-9.45s9.45,4.24,9.45,9.45v1.48h.53c2.33,0,4.21,1.89,4.21,4.21v12.46Z"/><circle class="cls-2" cx="46.16" cy="13.1" r="13.09" transform="translate(-1.5 7.56) rotate(-9.22)"/><polygon class="cls-1" points="44.51 18.72 39.75 14.38 41.11 12.9 44.38 15.89 51.3 8.31 52.78 9.67 44.51 18.72"/></svg>